Coordinates
version=1
nRows=7
nColumns=33
inDegrees=yes

Units are S.I. units (second, meters, Newtons, ...)
Angles are in degrees.

endheader
time	ground_thorax_rot_x	ground_thorax_rot_y	ground_thorax_rot_z	ground_thorax_tx	ground_thorax_ty	ground_thorax_tz	clav_prot_r	clav_elev_r	scapula_abduction_r	scapula_elevation_r	scapula_upward_rot_r	scapula_winging_r	shoulder_elv_r	plane_of_elev_r	axial_rot_r	elbow_flexion_r	pro_sup_r	wrist_flex_r	wrist_dev_r	clav_prot_l	clav_elev_l	scapula_abduction_l	scapula_elevation_l	scapula_upward_rot_l	scapula_winging_l	shoulder_elv_l	plane_of_elev_l	axial_rot_l	elbow_flexion_l	pro_sup_l	wrist_flex_l	wrist_dev_l
      7.60000000	     34.82636498	     20.56340041	     24.20143962	   -251.76381010	    828.00237148	      6.16193946	     13.73754937	     45.00000000	     45.00000000	     45.00000000	     45.00000000	   2135.13193781	  -3732.75796281	    -90.00000000	    -76.48780642	   2520.78907208	   -123.57386027	     21.71273629	     15.32515187	      4.12640581	    -45.00000000	    -39.72380483	     45.00000000	     -6.93177600	  -3129.46507432	   -269.84218688	     14.48588186	    179.99999979	    724.78968502	    211.34080533	      8.26375524	    -20.99784034
      7.61000000	     34.72754111	     20.85335392	     24.42581131	   -250.61791405	    828.06793693	      6.11566480	     13.70728385	     45.00000000	     45.00000000	     45.00000000	     45.00000000	   2135.16963131	  -3732.73426543	    -90.00000000	    -76.49564428	   2520.75744763	   -123.36580303	     21.70625133	     15.39989628	      4.15206280	    -45.00000000	    -39.78393247	     45.00000000	     -6.88426324	  -3129.52863910	   -269.81687681	     14.46388932	    179.99999979	    724.76940534	    211.31807302	      8.36079130	    -20.99302306
      7.62000000	     34.61721547	     21.19097831	     24.66466554	   -249.37902527	    828.13420704	      6.06351601	     13.67809915	     45.00000000	     45.00000000	     45.00000000	     45.00000000	   2135.18414697	  -3732.71531254	    -90.00000000	    -76.49895829	   2520.70055772	   -123.14731436	     21.69431478	     15.46860953	      4.24647207	    -45.00000000	    -39.86751144	     45.00000000	     -6.87242761	  -3129.57420728	   -269.79303624	     14.50378709	    179.99999979	    724.71675834	    211.29201195	      8.46051696	    -20.98987286
      7.63000000	     34.52462018	     21.55727708	     24.96453944	   -248.04440057	    828.19743025	      6.00751869	     13.67706685	     45.00000000	     45.00000000	     45.00000000	     45.00000000	   2135.22571081	  -3732.68354081	    -90.00000000	    -76.51524642	   2520.61324311	   -122.92056278	     21.69125643	     15.53543332	      4.36056223	    -45.00000000	    -39.97479191	     45.00000000	     -6.89865886	  -3129.57142800	   -269.80817912	     14.50065043	    179.99999979	    724.72254912	    211.27713674	      8.57449557	    -20.97628881
      7.64000000	     34.47752578	     21.87659681	     25.16658563	   -246.61504298	    828.25228429	      5.94991863	     13.63029408	     45.00000000	     45.00000000	     45.00000000	     45.00000000	   2135.36107163	  -3732.73685934	    -90.00000000	    -76.44588237	   2520.64826317	   -122.65757470	     21.66104871	     15.61965669	      4.29166197	    -45.00000000	    -39.99550432	     45.00000000	     -6.83117088	  -3129.71778863	   -269.81679303	     14.44049559	    179.99999979	    724.74282710	    211.26362450	      8.68739806	    -20.96028954
      7.65000000	     34.39875543	     22.25097861	     25.45072368	   -245.08549919	    828.29181889	      5.89272119	     13.63277434	     45.00000000	     45.00000000	     45.00000000	     45.00000000	   2135.43273542	  -3732.71719844	    -90.00000000	    -76.44927010	   2520.61394265	   -122.38780310	     21.63646717	     15.68876312	      4.36649854	    -45.00000000	    -40.13882887	     45.00000000	     -6.76169271	  -3129.71515262	   -269.83345390	     14.43110766	    179.99999979	    724.75643464	    211.25531881	      8.81310293	    -20.93662239
      7.66000000	     34.31942685	     22.62902415	     25.73558362	   -243.45029373	    828.30828472	      5.83755930	     13.58425070	     45.00000000	     45.00000000	     45.00000000	     45.00000000	   2135.51560838	  -3732.73238985	    -90.00000000	    -76.41705160	   2520.60878738	   -122.09391812	     21.61592440	     15.75919050	      4.38220657	    -45.00000000	    -40.25570373	     45.00000000	     -6.63402576	  -3129.75957195	   -269.83755855	     14.40722384	    179.99999979	    724.77878033	    211.24982274	      8.93512558	    -20.91270340
